<svg width="24" height="31" viewBox="0 0 24 31" fill="none" xmlns="http://www.w3.org/2000/svg">
<path d="M23.8525 10.7471C24.1376 10.2143 24.0025 9.59668 23.5074 9.17285L13.3053 0.454102C12.9677 0.163477 12.4951 0 12 0C11.5049 0 11.0323 0.163477 10.6947 0.454102L0.492581 9.17285C-0.00252292 9.59668 -0.137551 10.2143 0.147509 10.7471C0.432569 11.2799 1.0777 11.625 1.79786 11.625H7.19899V29.0625C7.19899 30.1342 8.27172 31 9.5995 31H14.4005C15.7283 31 16.801 30.1342 16.801 29.0625V11.625H22.2021C22.9223 11.625 23.5674 11.2799 23.8525 10.7471Z" fill="white"/>
</svg>
