<svg width="49" height="28" viewBox="0 0 49 28" fill="none" xmlns="http://www.w3.org/2000/svg">
<path d="M4.59375 0C2.05762 0 0 1.56771 0 3.5C0 4.60104 0.679492 5.63646 1.8375 6.3L22.6625 18.2C23.7535 18.8198 25.2465 18.8198 26.3375 18.2L47.1625 6.3C48.3205 5.63646 49 4.60104 49 3.5C49 1.56771 46.9424 0 44.4062 0H4.59375ZM0 8.16667V23.3333C0 25.9073 2.74668 28 6.125 28H42.875C46.2533 28 49 25.9073 49 23.3333V8.16667L28.175 20.0667C25.993 21.3135 23.007 21.3135 20.825 20.0667L0 8.16667Z" fill="white"/>
</svg>
